<svg width="33" height="33" viewBox="0 0 33 33" fill="none" xmlns="http://www.w3.org/2000/svg">
<path d="M13.75 26.125V32.3125M13.75 26.125C13.75 20.625 18.1046 12.6418 23.4616 8.17713L25.4375 6.53125V6.1875H18.5996M13.75 26.125C13.75 20.625 9.39537 12.6418 4.03838 8.17713L2.0625 6.53125V6.1875H18.5996M13.75 32.3125H6.875M13.75 32.3125H20.625M18.5996 6.1875C18.7323 5.0005 19.2058 3.87727 19.9628 2.9534C20.7198 2.02953 21.728 1.3445 22.8657 0.981006C24.0035 0.617507 25.2221 0.591073 26.3745 0.904895C27.527 1.21872 28.564 1.85938 29.3603 2.74956C30.1567 3.63973 30.6783 4.74137 30.8624 5.92151C31.0465 7.10164 30.885 8.30982 30.3976 9.40022C29.9101 10.4906 29.1175 11.4166 28.1153 12.0665C27.1132 12.7164 25.9444 13.0623 24.75 13.0625M7.5625 11.6875H19.9375" stroke="black"/>
</svg>
