<svg width="51" height="51" viewBox="0 0 51 51" fill="none" xmlns="http://www.w3.org/2000/svg">
<path fill-rule="evenodd" clip-rule="evenodd" d="M25.5 31.824C33.1596 30.3004 38.25 23.8425 38.25 15.9375C38.25 12.556 36.9067 9.31298 34.5156 6.92189C32.1245 4.5308 28.8815 3.1875 25.5 3.1875C22.1185 3.1875 18.8755 4.5308 16.4844 6.92189C14.0933 9.31298 12.75 12.556 12.75 15.9375C12.75 23.8425 17.8404 30.3004 25.5 31.824ZM41.4375 15.9375C41.4375 24.9804 35.7351 32.5986 27.03 34.7469L27.8078 36.2992C27.9024 36.4886 27.918 36.7078 27.8511 36.9087C27.7841 37.1095 27.6401 37.2756 27.4508 37.3703C27.2614 37.4649 27.0422 37.4805 26.8413 37.4136C26.6405 37.3466 26.4744 37.2026 26.3797 37.0133L26.3542 36.9591C26.3797 37.3097 26.418 37.6029 26.4722 37.8834C26.6443 38.7441 26.9854 39.4389 27.8078 41.0805C28.7257 42.9229 28.5568 44.7461 28.05 46.2729C27.5496 47.7679 26.7049 49.0365 26.1757 49.827L26.163 49.8493C26.1048 49.9364 26.0301 50.0111 25.943 50.0693C25.8559 50.1275 25.7582 50.1679 25.6555 50.1884C25.5528 50.2088 25.4471 50.2088 25.3444 50.1883C25.2417 50.1679 25.144 50.1274 25.0569 50.0693C24.9699 50.0111 24.8951 49.9363 24.8369 49.8492C24.7788 49.7622 24.7383 49.6645 24.7179 49.5618C24.6975 49.4591 24.6975 49.3533 24.7179 49.2506C24.7384 49.1479 24.7788 49.0503 24.837 48.9632C25.3725 48.1599 26.112 47.0507 26.5359 45.7661C26.9599 44.5039 27.0555 43.1396 26.3797 41.7945L26.3383 41.7052C25.5733 40.1752 25.1271 39.2891 24.9103 38.1926C24.821 37.7191 24.7656 37.2397 24.7446 36.7582L24.6171 37.0133C24.5707 37.1076 24.5061 37.1919 24.427 37.2612C24.3478 37.3305 24.2558 37.3834 24.1561 37.417C24.0565 37.4506 23.9511 37.464 23.8462 37.4567C23.7413 37.4494 23.6389 37.4213 23.5449 37.3742C23.4509 37.3271 23.3671 37.2618 23.2984 37.1822C23.2297 37.1025 23.1775 37.0101 23.1447 36.9102C23.1119 36.8102 23.0993 36.7048 23.1074 36.6C23.1156 36.4951 23.1444 36.3929 23.1923 36.2992L23.97 34.7469C15.2649 32.5986 9.5625 24.9804 9.5625 15.9375C9.5625 11.7106 11.2416 7.65685 14.2305 4.66799C17.2193 1.67912 21.2731 0 25.5 0C29.7269 0 33.7807 1.67912 36.7695 4.66799C39.7584 7.65685 41.4375 11.7106 41.4375 15.9375ZM19.3226 14.3597C19.6067 13.2512 20.1836 12.2394 20.9927 11.4302C21.8019 10.6211 22.8137 10.0442 23.9222 9.76013C24.7764 9.54338 25.5 8.8485 25.5 7.96875C25.5 7.089 24.7796 6.36225 23.9126 6.50569C21.953 6.83734 20.1451 7.77077 18.74 9.17645C17.3349 10.5821 16.4022 12.3903 16.0714 14.3501C15.9247 15.2171 16.6515 15.9375 17.5312 15.9375C18.411 15.9375 19.1059 15.2139 19.3226 14.3597Z" fill="black"/>
</svg>
