<svg width="60" height="60" viewBox="0 0 60 60" fill="none" xmlns="http://www.w3.org/2000/svg">
<path d="M14.9999 42.4999H44.9999M14.9999 34.6749C12.4648 34.1305 10.2403 32.6228 8.79555 30.4697C7.35082 28.3166 6.79887 25.6865 7.25613 23.1342C7.7134 20.582 9.14413 18.3071 11.2465 16.7895C13.3489 15.2719 15.9585 14.6303 18.5249 14.9999C19.1565 13.5665 20.0463 12.2614 21.1499 11.1499C22.3111 9.9858 23.6905 9.06223 25.2091 8.43207C26.7277 7.80191 28.3558 7.47754 29.9999 7.47754C31.6441 7.47754 33.2722 7.80191 34.7908 8.43207C36.3094 9.06223 37.6888 9.9858 38.8499 11.1499C39.9536 12.2614 40.8434 13.5665 41.4749 14.9999C44.0414 14.6303 46.651 15.2719 48.7534 16.7895C50.8558 18.3071 52.2865 20.582 52.7437 23.1342C53.201 25.6865 52.6491 28.3166 51.2043 30.4697C49.7596 32.6228 47.535 34.1305 44.9999 34.6749V52.4999H14.9999V34.6749Z" stroke="black" stroke-width="2" stroke-linecap="round" stroke-linejoin="round"/>
</svg>
