<svg width="72" height="72" viewBox="0 0 72 72" fill="none" xmlns="http://www.w3.org/2000/svg">
<path fill-rule="evenodd" clip-rule="evenodd" d="M36 60C49.2555 60 60 49.2555 60 36C60 22.7445 49.2555 12 36 12C22.7445 12 12 22.7445 12 36C12 49.2555 22.7445 60 36 60ZM36 63C50.9115 63 63 50.9115 63 36C63 21.0885 50.9115 9 36 9C21.0885 9 9 21.0885 9 36C9 50.9115 21.0885 63 36 63Z" fill="black"/>
<path fill-rule="evenodd" clip-rule="evenodd" d="M25.0426 42C27.3751 47.748 31.6726 51 36.0001 51C40.3291 51 44.6251 47.748 46.9576 42H25.0426ZM36.0001 54C29.9431 54 24.6931 49.428 22.1131 42.75C22.0878 42.6856 22.0628 42.6211 22.0381 42.5565C21.3691 40.77 22.8001 39 24.7096 39H47.2921C49.2016 39 50.6341 40.77 49.9621 42.5565C49.9378 42.6211 49.9133 42.6856 49.8886 42.75C47.3071 49.428 42.0571 54 36.0001 54Z" fill="black"/>
<path d="M31.953 33.6629C32.148 33.1259 32.0895 32.4704 31.929 31.8734C31.7357 31.1859 31.4263 30.5365 31.014 29.9534C30.1425 28.7099 28.698 27.5684 26.7465 27.4844C24.726 27.4004 23.217 28.6829 22.287 30.0434C21.8403 30.6982 21.4893 31.4134 21.2445 32.1674C21.03 32.8364 20.916 33.5204 20.991 34.0679C21.0082 34.1927 21.0566 34.3112 21.1317 34.4124C21.2068 34.5136 21.3062 34.5942 21.4207 34.6468C21.5353 34.6994 21.6612 34.7223 21.7869 34.7134C21.9126 34.7045 22.034 34.6641 22.14 34.5959C22.74 34.2119 23.3685 33.6854 23.9505 33.1994C24.2145 32.9774 24.471 32.7644 24.708 32.5769C25.551 31.9109 26.208 31.5314 26.751 31.5044C27.2685 31.4789 27.8655 31.7744 28.6185 32.3384C28.8885 32.5394 29.1495 32.7524 29.4195 32.9744L29.712 33.2129C30.078 33.5084 30.468 33.8114 30.861 34.0484C30.9558 34.1055 31.062 34.141 31.1722 34.1523C31.2823 34.1635 31.3936 34.1502 31.4979 34.1134C31.6023 34.0765 31.6973 34.017 31.7759 33.9391C31.8546 33.8612 31.9151 33.7669 31.953 33.6629ZM39.9195 33.6629C39.7245 33.1259 39.7845 32.4704 39.945 31.8734C40.113 31.2494 40.4235 30.5789 40.86 29.9534C41.73 28.7099 43.176 27.5684 45.1275 27.4844C47.1465 27.4004 48.657 28.6829 49.587 30.0434C50.058 30.7334 50.409 31.4804 50.6295 32.1674C50.8425 32.8364 50.9565 33.5204 50.8815 34.0679C50.8641 34.1925 50.8157 34.3107 50.7407 34.4117C50.6656 34.5127 50.5664 34.5932 50.4521 34.6458C50.3378 34.6983 50.2122 34.7213 50.0867 34.7126C49.9612 34.7039 49.8399 34.6638 49.734 34.5959C49.134 34.2119 48.504 33.6854 47.9235 33.1994C47.6737 32.9886 47.4212 32.7811 47.166 32.5769C46.3215 31.9109 45.666 31.5314 45.1215 31.5044C44.604 31.4789 44.007 31.7744 43.2555 32.3384C42.9855 32.5394 42.7245 32.7524 42.4545 32.9744L42.1605 33.2129C41.797 33.5166 41.4136 33.7957 41.013 34.0484C40.9181 34.1058 40.8117 34.1415 40.7014 34.1529C40.5911 34.1643 40.4796 34.1511 40.3751 34.1142C40.2705 34.0773 40.1754 34.0177 40.0966 33.9397C40.0178 33.8616 39.9573 33.7671 39.9195 33.6629Z" fill="black"/>
</svg>
