<svg width="60" height="60" viewBox="0 0 60 60" fill="none" xmlns="http://www.w3.org/2000/svg">
<path d="M10.72 40C8.71243 36.7829 7.60229 33.0871 7.50482 29.2962C7.40736 25.5053 8.32611 21.7573 10.1658 18.4413C12.0054 15.1252 14.6989 12.3618 17.9668 10.4379C21.2347 8.51399 24.9579 7.4996 28.75 7.5V30M46.78 40C48.8901 36.6275 50.0061 32.7282 50 28.75V23.75H56.25M8.75005 30H48.75M20 52.5C18.674 52.5 17.4022 51.9732 16.4645 51.0355C15.5268 50.0979 15 48.8261 15 47.5C15 46.1739 15.5268 44.9021 16.4645 43.9645C17.4022 43.0268 18.674 42.5 20 42.5C21.3261 42.5 22.5979 43.0268 23.5356 43.9645C24.4733 44.9021 25 46.1739 25 47.5C25 48.8261 24.4733 50.0979 23.5356 51.0355C22.5979 51.9732 21.3261 52.5 20 52.5ZM37.5 52.5C36.174 52.5 34.9022 51.9732 33.9645 51.0355C33.0268 50.0979 32.5 48.8261 32.5 47.5C32.5 46.1739 33.0268 44.9021 33.9645 43.9645C34.9022 43.0268 36.174 42.5 37.5 42.5C38.8261 42.5 40.0979 43.0268 41.0356 43.9645C41.9733 44.9021 42.5 46.1739 42.5 47.5C42.5 48.8261 41.9733 50.0979 41.0356 51.0355C40.0979 51.9732 38.8261 52.5 37.5 52.5Z" stroke="black" stroke-width="1.5" stroke-linecap="round" stroke-linejoin="round"/>
</svg>
