<svg width="60" height="60" viewBox="0 0 60 60" fill="none" xmlns="http://www.w3.org/2000/svg">
<path d="M15 42.4999H45M15 34.6749C12.4649 34.1305 10.2403 32.6228 8.79561 30.4697C7.35088 28.3166 6.79893 25.6865 7.25619 23.1342C7.71346 20.582 9.14419 18.3071 11.2466 16.7895C13.3489 15.2719 15.9586 14.6303 18.525 14.9999C19.1566 13.5665 20.0464 12.2614 21.15 11.1499C22.3111 9.9858 23.6905 9.06223 25.2092 8.43207C26.7278 7.80191 28.3558 7.47754 30 7.47754C31.6442 7.47754 33.2722 7.80191 34.7908 8.43207C36.3095 9.06223 37.6889 9.9858 38.85 11.1499C39.9536 12.2614 40.8434 13.5665 41.475 14.9999C44.0414 14.6303 46.6511 15.2719 48.7534 16.7895C50.8558 18.3071 52.2865 20.582 52.7438 23.1342C53.2011 25.6865 52.6491 28.3166 51.2044 30.4697C49.7597 32.6228 47.5351 34.1305 45 34.6749V52.4999H15V34.6749Z" stroke="black" stroke-width="2" stroke-linecap="round" stroke-linejoin="round"/>
</svg>
