<svg width="104" height="26" viewBox="0 0 104 26" fill="none" xmlns="http://www.w3.org/2000/svg">
<path d="M13.508 25.288C6.56 25.288 0.944 20.14 0.944 12.76C0.944 5.38 6.56 0.231999 13.508 0.231999C20.492 0.231999 26.108 5.38 26.108 12.76C26.108 20.14 20.492 25.288 13.508 25.288ZM13.508 22.948C19.232 22.948 23.408 18.592 23.408 12.76C23.408 6.928 19.232 2.572 13.508 2.572C7.82 2.572 3.644 6.928 3.644 12.76C3.644 18.592 7.82 22.948 13.508 22.948ZM31.4951 25V0.52H34.1231V25H31.4951ZM43.2904 15.46C43.8304 14.416 44.5864 13.048 45.0544 12.436L54.3064 0.52H57.2224L48.1504 12.328L58.1944 25H54.9904L46.4584 14.236L43.5064 17.8V25H40.9144V0.52H43.5064V12.112C43.5064 13.264 43.3624 14.668 43.2904 15.46ZM72.1486 25.288C65.2006 25.288 59.5846 20.14 59.5846 12.76C59.5846 5.38 65.2006 0.231999 72.1486 0.231999C79.1326 0.231999 84.7486 5.38 84.7486 12.76C84.7486 20.14 79.1326 25.288 72.1486 25.288ZM72.1486 22.948C77.8726 22.948 82.0486 18.592 82.0486 12.76C82.0486 6.928 77.8726 2.572 72.1486 2.572C66.4606 2.572 62.2846 6.928 62.2846 12.76C62.2846 18.592 66.4606 22.948 72.1486 22.948ZM95.9041 25.288C91.2241 25.288 88.6681 22.912 87.3721 20.32L89.5321 19.168C90.6841 21.22 92.3761 22.984 95.8321 22.984C98.6761 22.984 100.908 21.4 100.908 18.808C100.908 16.324 99.3601 15.064 96.3001 13.696L94.3561 12.796C90.8641 11.212 88.9561 9.52 88.9561 6.1C88.9561 2.572 91.7281 0.231999 95.4001 0.231999C98.6761 0.231999 100.728 1.744 102.024 3.904L99.9361 5.2C99.0001 3.688 97.7041 2.536 95.4001 2.536C92.9881 2.536 91.5121 3.94 91.5121 6.028C91.5121 8.188 92.6641 9.16 95.4001 10.42L97.3441 11.32C101.412 13.12 103.5 15.136 103.5 18.808C103.5 22.84 100.296 25.288 95.9041 25.288Z" fill="black"/>
</svg>
