<svg width="33" height="33" viewBox="0 0 33 33" fill="none" xmlns="http://www.w3.org/2000/svg">
<path d="M15.8125 17.8752V8.93768H14.201C13.2853 8.93769 12.3956 9.24239 11.6722 9.80377C10.9487 10.3651 10.4327 11.1513 10.2052 12.0383L8.88113 17.2138M23.375 32.3127C22 32.3127 20.9688 30.2502 20.9688 30.2502C19.9375 28.1877 19.9375 26.8127 19.9375 24.7502V22.6877H15.5279M31.625 19.2502C31.2606 19.2502 30.7175 19.6283 30.2596 20.0106C29.663 20.5042 29.1568 21.0979 28.7636 21.7651C28.4694 22.2697 28.1875 22.8829 28.1875 23.3752C28.1875 22.8829 27.9056 22.2697 27.61 21.7651C27.2172 21.098 26.7115 20.5043 26.1154 20.0106C25.6589 19.6283 25.1144 19.2502 24.75 19.2502M31.625 13.7502C31.2606 13.7502 30.7175 13.3721 30.2596 12.9898C29.663 12.4961 29.1568 11.9024 28.7636 11.2353C28.4694 10.7307 28.1875 10.1174 28.1875 9.62518C28.1875 10.1174 27.9056 10.7307 27.61 11.2353C27.2181 11.9091 26.7039 12.4976 26.1154 12.9898C25.6589 13.3721 25.1144 13.7502 24.75 13.7502M8.25 32.3127C7.25688 32.3127 6.27348 32.1171 5.35596 31.737C4.43843 31.357 3.60475 30.7999 2.9025 30.0977C2.20026 29.3954 1.64321 28.5617 1.26316 27.6442C0.88311 26.7267 0.6875 25.7433 0.6875 24.7502C0.6875 23.7571 0.88311 22.7737 1.26316 21.8561C1.64321 20.9386 2.20026 20.1049 2.9025 19.4027C3.60475 18.7004 4.43843 18.1434 5.35596 17.7633C6.27348 17.3833 7.25688 17.1877 8.25 17.1877C10.2557 17.1877 12.1793 17.9844 13.5975 19.4027C15.0157 20.8209 15.8125 22.7445 15.8125 24.7502C15.8125 26.7559 15.0157 28.6794 13.5975 30.0977C12.1793 31.5159 10.2557 32.3127 8.25 32.3127ZM15.6063 6.18768C15.6063 6.18768 13.4062 4.81268 13.4062 3.09393C13.4062 2.45648 13.6595 1.84514 14.1102 1.3944C14.561 0.943655 15.1723 0.69043 15.8098 0.69043C16.4472 0.69043 17.0585 0.943655 17.5093 1.3944C17.96 1.84514 18.2133 2.45648 18.2133 3.09393C18.2133 4.81268 16.0187 6.18768 16.0187 6.18768H15.6063Z" stroke="black"/>
</svg>
