<svg width="72" height="72" viewBox="0 0 72 72" fill="none" xmlns="http://www.w3.org/2000/svg">
<path fill-rule="evenodd" clip-rule="evenodd" d="M36 60C49.2555 60 60 49.2555 60 36C60 22.7445 49.2555 12 36 12C22.7445 12 12 22.7445 12 36C12 49.2555 22.7445 60 36 60ZM36 63C50.9115 63 63 50.9115 63 36C63 21.0885 50.9115 9 36 9C21.0885 9 9 21.0885 9 36C9 50.9115 21.0885 63 36 63Z" fill="black"/>
<path fill-rule="evenodd" clip-rule="evenodd" d="M25.0424 42C27.3749 47.748 31.6724 51 35.9999 51C40.3289 51 44.6249 47.748 46.9574 42H25.0424ZM35.9999 54C29.9429 54 24.6929 49.428 22.1129 42.75C22.0877 42.6856 22.0627 42.6211 22.0379 42.5565C21.3689 40.77 22.7999 39 24.7094 39H47.2919C49.2014 39 50.6339 40.77 49.9619 42.5565C49.9377 42.6211 49.9132 42.6856 49.8884 42.75C47.3069 49.428 42.0569 54 35.9999 54Z" fill="black"/>
<path d="M31.9531 33.6629C32.1481 33.1259 32.0896 32.4704 31.9291 31.8734C31.7359 31.1859 31.4264 30.5365 31.0141 29.9534C30.1426 28.7099 28.6981 27.5684 26.7466 27.4844C24.7261 27.4004 23.2171 28.6829 22.2871 30.0434C21.8404 30.6982 21.4894 31.4134 21.2446 32.1674C21.0301 32.8364 20.9161 33.5204 20.9911 34.0679C21.0083 34.1927 21.0567 34.3112 21.1318 34.4124C21.207 34.5136 21.3064 34.5942 21.4209 34.6468C21.5354 34.6994 21.6613 34.7223 21.787 34.7134C21.9127 34.7045 22.0341 34.6641 22.1401 34.5959C22.7401 34.2119 23.3686 33.6854 23.9506 33.1994C24.2146 32.9774 24.4711 32.7644 24.7081 32.5769C25.5511 31.9109 26.2081 31.5314 26.7511 31.5044C27.2686 31.4789 27.8656 31.7744 28.6186 32.3384C28.8886 32.5394 29.1496 32.7524 29.4196 32.9744L29.7121 33.2129C30.0781 33.5084 30.4681 33.8114 30.8611 34.0484C30.9559 34.1055 31.0622 34.141 31.1723 34.1523C31.2824 34.1635 31.3937 34.1502 31.4981 34.1134C31.6025 34.0765 31.6974 34.017 31.7761 33.9391C31.8547 33.8612 31.9152 33.7669 31.9531 33.6629ZM39.9196 33.6629C39.7246 33.1259 39.7846 32.4704 39.9451 31.8734C40.1131 31.2494 40.4236 30.5789 40.8601 29.9534C41.7301 28.7099 43.1761 27.5684 45.1276 27.4844C47.1466 27.4004 48.6571 28.6829 49.5871 30.0434C50.0581 30.7334 50.4091 31.4804 50.6296 32.1674C50.8426 32.8364 50.9566 33.5204 50.8816 34.0679C50.8642 34.1925 50.8158 34.3107 50.7408 34.4117C50.6658 34.5127 50.5665 34.5932 50.4523 34.6458C50.338 34.6983 50.2123 34.7213 50.0868 34.7126C49.9613 34.7039 49.84 34.6638 49.7341 34.5959C49.1341 34.2119 48.5041 33.6854 47.9236 33.1994C47.6738 32.9886 47.4213 32.7811 47.1661 32.5769C46.3216 31.9109 45.6661 31.5314 45.1216 31.5044C44.6041 31.4789 44.0071 31.7744 43.2556 32.3384C42.9856 32.5394 42.7246 32.7524 42.4546 32.9744L42.1606 33.2129C41.7971 33.5166 41.4137 33.7957 41.0131 34.0484C40.9182 34.1058 40.8118 34.1415 40.7015 34.1529C40.5912 34.1643 40.4798 34.1511 40.3752 34.1142C40.2706 34.0773 40.1755 34.0177 40.0967 33.9397C40.0179 33.8616 39.9574 33.7671 39.9196 33.6629Z" fill="black"/>
</svg>
