<svg width="40" height="40" viewBox="0 0 40 40" fill="none" xmlns="http://www.w3.org/2000/svg">
<path d="M11.108 20.0319C11.108 20.7079 11.182 21.3659 11.324 21.9999H5C4.73478 21.9999 4.48043 22.1052 4.29289 22.2927C4.10536 22.4803 4 22.7346 4 22.9999C4 23.2651 4.10536 23.5194 4.29289 23.707C4.48043 23.8945 4.73478 23.9999 5 23.9999H35C35.2652 23.9999 35.5196 23.8945 35.7071 23.707C35.8946 23.5194 36 23.2651 36 22.9999C36 22.7346 35.8946 22.4803 35.7071 22.2927C35.5196 22.1052 35.2652 21.9999 35 21.9999H28.816C29.0908 20.7708 29.1035 19.4976 28.8533 18.2634C28.603 17.0291 28.0955 15.8614 27.3637 14.8365C26.6318 13.8115 25.6922 12.9523 24.6061 12.3149C23.5199 11.6774 22.3116 11.2761 21.0599 11.137C19.8082 10.9979 18.5413 11.1241 17.3417 11.5075C16.142 11.8909 15.0367 12.5229 14.0977 13.3621C13.1587 14.2014 12.4071 15.2291 11.892 16.3784C11.3769 17.5276 11.1097 18.7725 11.108 20.0319ZM26.752 21.9999H13.392C13.0872 20.9618 13.0285 19.867 13.2206 18.8023C13.4127 17.7376 13.8503 16.7324 14.4986 15.8663C15.147 15.0002 15.9883 14.2971 16.9557 13.8129C17.9231 13.3286 18.9901 13.0765 20.072 13.0765C21.1539 13.0765 22.2209 13.3286 23.1883 13.8129C24.1557 14.2971 24.997 15.0002 25.6454 15.8663C26.2937 16.7324 26.7313 17.7376 26.9234 18.8023C27.1155 19.867 27.0568 20.9618 26.752 21.9999ZM20.052 36.0238C20.1253 36.0238 20.1984 36.0158 20.27 35.9999H19.83C19.9022 36.0159 19.976 36.024 20.05 36.0238H20.052ZM10.012 8.64785L10.152 8.76385L11.868 10.4799C12.0452 10.6562 12.1498 10.8926 12.1614 11.1423C12.173 11.392 12.0906 11.637 11.9304 11.829C11.7703 12.021 11.5441 12.1461 11.2964 12.1795C11.0486 12.213 10.7973 12.1525 10.592 12.0099L10.452 11.8939L8.736 10.1779C8.55883 10.0015 8.45415 9.76513 8.44259 9.5154C8.43104 9.26568 8.51343 9.02068 8.67355 8.82869C8.83367 8.6367 9.05989 8.51164 9.30763 8.47817C9.55538 8.4447 9.80667 8.50524 10.012 8.64785ZM31.36 8.76385C31.5252 8.92919 31.6272 9.14715 31.6484 9.37988C31.6696 9.6126 31.6086 9.8454 31.476 10.0379L31.36 10.1779L29.642 11.8939C29.4651 12.0684 29.2295 12.1708 28.9811 12.1811C28.7328 12.1914 28.4895 12.1089 28.2987 11.9496C28.1079 11.7902 27.9833 11.5656 27.9492 11.3194C27.915 11.0732 27.9738 10.8231 28.114 10.6179L28.228 10.4779L29.946 8.76385C30.1335 8.57638 30.3878 8.47107 30.653 8.47107C30.9182 8.47107 31.1725 8.57638 31.36 8.76385ZM20.054 4.04785C20.2881 4.04777 20.5147 4.12979 20.6945 4.27963C20.8743 4.42947 20.9959 4.63762 21.038 4.86785L21.054 5.04785V7.47585C21.0545 7.72574 20.9613 7.96675 20.793 8.15142C20.6246 8.33608 20.3932 8.45102 20.1444 8.4736C19.8955 8.49618 19.6472 8.42476 19.4483 8.27341C19.2495 8.12206 19.1145 7.90175 19.07 7.65585L19.054 7.47585V5.04785C19.054 4.78264 19.1594 4.52828 19.3469 4.34075C19.5344 4.15321 19.7888 4.04785 20.054 4.04785ZM17 31.9999C16.7348 31.9999 16.4804 32.1052 16.2929 32.2927C16.1054 32.4803 16 32.7346 16 32.9999C16 33.2651 16.1054 33.5194 16.2929 33.707C16.4804 33.8945 16.7348 33.9999 17 33.9999H23C23.2652 33.9999 23.5196 33.8945 23.7071 33.707C23.8946 33.5194 24 33.2651 24 32.9999C24 32.7346 23.8946 32.4803 23.7071 32.2927C23.5196 32.1052 23.2652 31.9999 23 31.9999H17ZM10 27.9999C10 27.7346 10.1054 27.4803 10.2929 27.2927C10.4804 27.1052 10.7348 26.9999 11 26.9999H29C29.2652 26.9999 29.5196 27.1052 29.7071 27.2927C29.8946 27.4803 30 27.7346 30 27.9999C30 28.2651 29.8946 28.5194 29.7071 28.707C29.5196 28.8945 29.2652 28.9999 29 28.9999H11C10.7348 28.9999 10.4804 28.8945 10.2929 28.707C10.1054 28.5194 10 28.2651 10 27.9999Z" fill="black"/>
</svg>
