<svg width="60" height="60" viewBox="0 0 60 60" fill="none" xmlns="http://www.w3.org/2000/svg">
<g clip-path="url(#clip0_81_1295)">
<path d="M47.3 12.525C46.8 11.05 45.4 10 43.75 10H16.25C14.6 10 13.225 11.05 12.7 12.525L7.5 27.5V47.5C7.5 48.875 8.625 50 10 50H12.5C13.875 50 15 48.875 15 47.5V45H45V47.5C45 48.875 46.125 50 47.5 50H50C51.375 50 52.5 48.875 52.5 47.5V27.5L47.3 12.525ZM16.25 37.5C14.175 37.5 12.5 35.825 12.5 33.75C12.5 31.675 14.175 30 16.25 30C18.325 30 20 31.675 20 33.75C20 35.825 18.325 37.5 16.25 37.5ZM43.75 37.5C41.675 37.5 40 35.825 40 33.75C40 31.675 41.675 30 43.75 30C45.825 30 47.5 31.675 47.5 33.75C47.5 35.825 45.825 37.5 43.75 37.5ZM12.5 25L16.25 13.75H43.75L47.5 25H12.5Z" fill="black"/>
</g>
<defs>
<clipPath id="clip0_81_1295">
<rect width="60" height="60" fill="white"/>
</clipPath>
</defs>
</svg>
